<svg width="36" height="36" viewBox="0 0 36 36" fill="none" xmlns="http://www.w3.org/2000/svg">
  <path d="M31.5 22.5C31.5 20.7139 30.7895 19.0008 29.5205 17.7318C28.2516 16.4629 26.5385 15.7524 24.7524 15.7524C24.3524 15.7524 23.9524 15.7924 23.5524 15.8724C22.4524 12.7124 19.5524 10.5 16.1524 10.5C12.7524 10.5 9.85244 12.7124 8.75244 15.8724C8.35244 15.7924 7.95244 15.7524 7.55244 15.7524C5.76634 15.7524 4.05323 16.4629 2.78427 17.7318C1.51531 19.0008 0.804859 20.7139 0.804859 22.5C0.804859 24.2861 1.51531 25.9992 2.78427 27.2682C4.05323 28.5371 5.76634 29.2476 7.55244 29.2476H24.7524C26.5385 29.2476 28.2516 28.5371 29.5205 27.2682C30.7895 25.9992 31.5 24.2861 31.5 22.5Z" stroke="#3F3F46" stroke-width="2" stroke-linecap="round" stroke-linejoin="round"/>
  <path d="M22.5 18L18 22.5L13.5 18" stroke="#3F3F46" stroke-width="2" stroke-linecap="round" stroke-linejoin="round"/>
  <path d="M18 22.5V12" stroke="#3F3F46" stroke-width="2" stroke-linecap="round" stroke-linejoin="round"/>
</svg>